<?xml version="1.0" encoding="UTF-8"?>
<svg xmlns="http://www.w3.org/2000/svg" width="1400" height="600" viewBox="0 0 1400 600">
<rect width="100%" height="100%" fill="#FAFAFA"/>
<g id="title">
<text x="700" y="50" text-anchor="middle" dominant-baseline="middle" font-family="Arial, sans-serif" font-size="32" font-weight="bold" fill="currentColor">A Recent History of Language AI</text>
</g>
<g id="timeline-axis">
<line x1="80" y1="320" x2="1350" y2="320" stroke="#888888" stroke-width="3"/>
<polygon points="1350,320 1341.3397459621556,325.0 1341.3397459621556,315.0" fill="#888888"/>
<line x1="80" y1="320" x2="200" y2="320" stroke="#888888" stroke-width="3" stroke-dasharray="5,5"/>
<circle cx="200" cy="320" r="8" fill="#555555" stroke="#555555" stroke-width="2"/>
<circle cx="340" cy="320" r="8" fill="#555555" stroke="#555555" stroke-width="2"/>
<circle cx="480" cy="320" r="8" fill="#555555" stroke="#555555" stroke-width="2"/>
<circle cx="620" cy="320" r="8" fill="#555555" stroke="#555555" stroke-width="2"/>
<circle cx="730" cy="320" r="8" fill="#555555" stroke="#555555" stroke-width="2"/>
<circle cx="820" cy="320" r="8" fill="#555555" stroke="#555555" stroke-width="2"/>
<circle cx="880" cy="320" r="8" fill="#555555" stroke="#555555" stroke-width="2"/>
<circle cx="940" cy="320" r="8" fill="#555555" stroke="#555555" stroke-width="2"/>
<circle cx="1040" cy="320" r="8" fill="#555555" stroke="#555555" stroke-width="2"/>
<circle cx="1150" cy="320" r="8" fill="#555555" stroke="#555555" stroke-width="2"/>
<circle cx="1260" cy="320" r="8" fill="#555555" stroke="#555555" stroke-width="2"/>
</g>
<g id="year-labels">
<text x="200" y="355" text-anchor="middle" dominant-baseline="middle" font-family="Arial, sans-serif" font-size="14" font-weight="normal" fill="currentColor">~2000</text>
<text x="340" y="355" text-anchor="middle" dominant-baseline="middle" font-family="Arial, sans-serif" font-size="14" font-weight="normal" fill="currentColor">2013</text>
<text x="480" y="355" text-anchor="middle" dominant-baseline="middle" font-family="Arial, sans-serif" font-size="14" font-weight="normal" fill="currentColor">2017</text>
<text x="620" y="355" text-anchor="middle" dominant-baseline="middle" font-family="Arial, sans-serif" font-size="14" font-weight="normal" fill="currentColor">2018</text>
<text x="790" y="355" text-anchor="middle" dominant-baseline="middle" font-family="Arial, sans-serif" font-size="14" font-weight="normal" fill="currentColor">2019</text>
<text x="940" y="355" text-anchor="middle" dominant-baseline="middle" font-family="Arial, sans-serif" font-size="14" font-weight="normal" fill="currentColor">2020</text>
<text x="1040" y="355" text-anchor="middle" dominant-baseline="middle" font-family="Arial, sans-serif" font-size="14" font-weight="normal" fill="currentColor">2021</text>
<text x="1150" y="355" text-anchor="middle" dominant-baseline="middle" font-family="Arial, sans-serif" font-size="14" font-weight="normal" fill="currentColor">2022</text>
<text x="1260" y="355" text-anchor="middle" dominant-baseline="middle" font-family="Arial, sans-serif" font-size="14" font-weight="normal" fill="currentColor">2023</text>
</g>
<g id="bag-of-words">
<line x1="200" y1="310" x2="200" y2="230" stroke="#555555" stroke-width="2"/>
<rect x="140" y="180" width="120" height="50" rx="6" fill="#555555" stroke="#333333" stroke-width="2"/>
<text x="200.0" y="205.0" text-anchor="middle" dominant-baseline="central" font-family="Arial, sans-serif" font-size="14" font-weight="normal" fill="#FFFFFF">Bag-of-Words</text>
</g>
<g id="word2vec">
<line x1="340" y1="330" x2="340" y2="410" stroke="#555555" stroke-width="2"/>
<rect x="270" y="410" width="140" height="45" rx="6" fill="#555555" stroke="#333333" stroke-width="2"/>
<text x="340.0" y="432.5" text-anchor="middle" dominant-baseline="central" font-family="Arial, sans-serif" font-size="14" font-weight="normal" fill="#FFFFFF">Word2Vec</text>
</g>
<g id="attention">
<line x1="480" y1="310" x2="480" y2="230" stroke="#555555" stroke-width="2"/>
<rect x="410" y="180" width="140" height="50" rx="6" fill="#555555" stroke="#333333" stroke-width="2"/>
<text x="480.0" y="205.0" text-anchor="middle" dominant-baseline="central" font-family="Arial, sans-serif" font-size="14" font-weight="normal" fill="#FFFFFF">Attention</text>
</g>
<g id="gpt">
<line x1="660" y1="310" x2="660" y2="230" stroke="#B05050" stroke-width="2"/>
<rect x="610" y="180" width="100" height="45" rx="6" fill="#B05050" stroke="#333333" stroke-width="2"/>
<text x="660.0" y="202.5" text-anchor="middle" dominant-baseline="central" font-family="Arial, sans-serif" font-size="14" font-weight="normal" fill="#FFFFFF">GPT</text>
</g>
<g id="bert">
<line x1="620" y1="330" x2="620" y2="410" stroke="#5070B0" stroke-width="2"/>
<rect x="560" y="410" width="120" height="45" rx="6" fill="#5070B0" stroke="#333333" stroke-width="2"/>
<text x="620.0" y="432.5" text-anchor="middle" dominant-baseline="central" font-family="Arial, sans-serif" font-size="14" font-weight="normal" fill="#FFFFFF">BERT</text>
</g>
<g id="distilbert">
<line x1="770" y1="310" x2="770" y2="160" stroke="#5070B0" stroke-width="2"/>
<rect x="700" y="110" width="140" height="50" rx="6" fill="#5070B0" stroke="#333333" stroke-width="2"/>
<text x="770.0" y="135.0" text-anchor="middle" dominant-baseline="central" font-family="Arial, sans-serif" font-size="14" font-weight="normal" fill="#FFFFFF">DistilBERT</text>
</g>
<g id="gpt2">
<line x1="790" y1="330" x2="790" y2="410" stroke="#B05050" stroke-width="2"/>
<rect x="720" y="410" width="120" height="45" rx="6" fill="#B05050" stroke="#333333" stroke-width="2"/>
<text x="780.0" y="432.5" text-anchor="middle" dominant-baseline="central" font-family="Arial, sans-serif" font-size="14" font-weight="normal" fill="#FFFFFF">GPT-2</text>
</g>
<g id="t5">
<line x1="870" y1="310" x2="870" y2="230" stroke="#50A050" stroke-width="2"/>
<rect x="830" y="180" width="80" height="45" rx="6" fill="#50A050" stroke="#333333" stroke-width="2"/>
<text x="870.0" y="202.5" text-anchor="middle" dominant-baseline="central" font-family="Arial, sans-serif" font-size="14" font-weight="normal" fill="#FFFFFF">T5</text>
</g>
<g id="gpt3">
<line x1="950" y1="310" x2="950" y2="230" stroke="#B05050" stroke-width="2"/>
<rect x="890" y="180" width="120" height="45" rx="6" fill="#B05050" stroke="#333333" stroke-width="2"/>
<text x="950.0" y="202.5" text-anchor="middle" dominant-baseline="central" font-family="Arial, sans-serif" font-size="14" font-weight="normal" fill="#FFFFFF">GPT-3</text>
</g>
<g id="roberta">
<line x1="880" y1="330" x2="880" y2="480" stroke="#B05050" stroke-width="2"/>
<rect x="800" y="480" width="140" height="45" rx="6" fill="#B05050" stroke="#333333" stroke-width="2"/>
<text x="870.0" y="502.5" text-anchor="middle" dominant-baseline="central" font-family="Arial, sans-serif" font-size="14" font-weight="normal" fill="#FFFFFF">RoBERTa</text>
</g>
<g id="switch">
<line x1="1040" y1="330" x2="1040" y2="410" stroke="#50A050" stroke-width="2"/>
<rect x="980" y="410" width="120" height="45" rx="6" fill="#50A050" stroke="#333333" stroke-width="2"/>
<text x="1040.0" y="432.5" text-anchor="middle" dominant-baseline="central" font-family="Arial, sans-serif" font-size="14" font-weight="normal" fill="#FFFFFF">Switch</text>
</g>
<g id="flan-t5">
<line x1="1230" y1="310" x2="1230" y2="180" stroke="#50A050" stroke-width="2"/>
<rect x="1170" y="130" width="120" height="50" rx="6" fill="#50A050" stroke="#333333" stroke-width="2"/>
<text x="1230.0" y="155.0" text-anchor="middle" dominant-baseline="central" font-family="Arial, sans-serif" font-size="14" font-weight="normal" fill="#FFFFFF">Flan-T5</text>
</g>
<g id="chatgpt">
<line x1="1280" y1="330" x2="1280" y2="410" stroke="#B05050" stroke-width="2"/>
<rect x="1200" y="410" width="140" height="45" rx="6" fill="#B05050" stroke="#333333" stroke-width="2"/>
<text x="1270.0" y="432.5" text-anchor="middle" dominant-baseline="central" font-family="Arial, sans-serif" font-size="14" font-weight="normal" fill="#FFFFFF">ChatGPT</text>
</g>
<g id="legend">
<g id="legend-decoder">
<rect x="100" y="530" width="20" height="20" rx="3" fill="#B05050" stroke="#B05050" stroke-width="2"/>
<text x="130" y="540" text-anchor="start" dominant-baseline="middle" font-family="Arial, sans-serif" font-size="13" font-weight="normal" fill="currentColor">decoder-only</text>
</g>
<g id="legend-nontransformer">
<rect x="280" y="530" width="20" height="20" rx="3" fill="#555555" stroke="#555555" stroke-width="2"/>
<text x="310" y="540" text-anchor="start" dominant-baseline="middle" font-family="Arial, sans-serif" font-size="13" font-weight="normal" fill="currentColor">non-transformer models</text>
</g>
<g id="legend-encoder">
<rect x="100" y="560" width="20" height="20" rx="3" fill="#5070B0" stroke="#5070B0" stroke-width="2"/>
<text x="130" y="570" text-anchor="start" dominant-baseline="middle" font-family="Arial, sans-serif" font-size="13" font-weight="normal" fill="currentColor">encoder-only</text>
</g>
<g id="legend-encdec">
<rect x="280" y="560" width="20" height="20" rx="3" fill="#50A050" stroke="#50A050" stroke-width="2"/>
<text x="310" y="570" text-anchor="start" dominant-baseline="middle" font-family="Arial, sans-serif" font-size="13" font-weight="normal" fill="currentColor">encoder-decoder</text>
</g>
</g>
</svg>